<svg xmlns="http://www.w3.org/2000/svg" xmlns:xlink="http://www.w3.org/1999/xlink" id="triangles" x="0" y="0" enable-background="new 0 0 1024 512" version="1.1" viewBox="0 0 1024 512" xml:space="preserve"><defs><filter id="glow"><fegaussianblur class="blur" result="coloredBlur" stddeviation="4"/><femerge><femergenode in="coloredBlur"/><femergenode in="coloredBlur"/><femergenode in="coloredBlur"/><femergenode in="SourceGraphic"/></femerge></filter><linearGradient id="grad1" x1="0%" x2="100%" y1="0%" y2="0%"><stop offset="0%" style="stop-color:#00c3ff;stop-opacity:1"/><stop offset="100%" style="stop-color:#4e00cc;stop-opacity:1"/></linearGradient></defs><g id="_x32_"><polygon id="to_fade" fill="#FFF" points="220.3 417.8 164.1 417.8 192.2 371.2 188.2 364.5 156 417.8 220.3 417.8"><animate fill="freeze" attributeName="opacity" begin=".1s" dur="2s" from="1" repeatCount="1" to="0"/></polygon><g id="_x32__1_"><polygon fill="#FFF" points="355.6 87.2 192.2 357.8 188.2 364.5 192.2 371.2 196.3 364.5 355.6 100.7 546.7 417.8 228.3 417.8 220.3 417.8 220.3 417.8 156 417.8 151.7 424.9 232.6 424.9 559 424.9"/><path fill="#FFF" d="M355.6,170.1L226.8,383.4h257.3L355.6,170.1z M355.6,183.6l116.1,192.8H239.2L355.6,183.6z"/></g><animateTransform fill="freeze" attributeName="transform" begin="0s" dur="2s" from="0 0" repeatCount="1" to="327 0" type="translate"/></g><g id="_x31_"><polygon id="to_fade_1_" fill="#FFF" points="554.7 417.8 522.6 364.5 518.6 371.2 546.7 417.8"><animate fill="freeze" attributeName="opacity" begin=".1s" dur="2s" from="1" repeatCount="1" to="0"/></polygon><g id="_x31__1_"><polygon fill="#FFF" points="559 424.8 554.7 417.8 546.7 417.8 546.7 417.8 482.3 417.8 164.1 417.8 355.6 100.7 514.5 364.4 518.6 371.2 522.6 364.5 518.6 357.8 355.6 87.2 151.7 424.9 559 424.9"/><path fill="#FFF" d="M226.8,383.4h257.3L355.6,170.1L226.8,383.4z M239.2,376.4l116.4-192.8l116.1,192.8H239.2z"/></g></g></svg>